<?xml version="1.0" standalone="no"?>
<!DOCTYPE svg PUBLIC "-//W3C//DTD SVG 20010904//EN"
 "http://www.w3.org/TR/2001/REC-SVG-20010904/DTD/svg10.dtd">
<svg version="1.0" xmlns="http://www.w3.org/2000/svg"
 width="414.000000pt" height="414.000000pt" viewBox="0 0 414.000000 414.000000"
 preserveAspectRatio="xMidYMid meet">
<metadata>
Created by potrace 1.14, written by Peter Selinger 2001-2017
</metadata>
<g transform="translate(0.000000,414.000000) scale(0.100000,-0.100000)"
fill="#000000" stroke="none">
<path d="M1250 4130 c-25 -5 -63 -11 -85 -15 -142 -23 -376 -115 -500 -197
-239 -158 -417 -359 -530 -602 -41 -88 -89 -232 -105 -311 -6 -33 -14 -71 -17
-85 -3 -14 -7 -385 -9 -825 -3 -851 -3 -833 45 -1038 26 -109 106 -288 184
-409 165 -258 462 -485 763 -582 57 -18 79 -24 169 -41 22 -4 51 -10 65 -13
14 -3 381 -7 815 -8 838 -3 852 -2 1038 45 392 101 747 401 925 781 28 60 78
198 88 245 43 187 43 195 41 1025 -2 437 -6 806 -10 820 -4 14 -12 51 -17 82
-11 58 -52 196 -69 233 -5 11 -26 56 -46 99 -182 393 -584 701 -1020 781 -22
4 -51 10 -65 13 -41 9 -1611 10 -1660 2z"/>
</g>
</svg>
