<?xml version="1.0" standalone="no"?>
<!DOCTYPE svg PUBLIC "-//W3C//DTD SVG 20010904//EN"
 "http://www.w3.org/TR/2001/REC-SVG-20010904/DTD/svg10.dtd">
<svg version="1.0" xmlns="http://www.w3.org/2000/svg"
 width="414.000000pt" height="414.000000pt" viewBox="0 0 414.000000 414.000000"
 preserveAspectRatio="xMidYMid meet">
<metadata>
Created by potrace 1.14, written by Peter Selinger 2001-2017
</metadata>
<g transform="translate(0.000000,414.000000) scale(0.100000,-0.100000)"
fill="#000000" stroke="none">
<path d="M1915 3949 c-22 -4 -59 -8 -82 -8 -23 -1 -43 -5 -45 -11 -1 -5 -25
-11 -53 -14 -27 -2 -72 -14 -99 -25 -62 -27 -173 -99 -180 -116 -3 -8 -22 -23
-43 -33 -50 -26 -139 -121 -192 -205 -48 -75 -131 -153 -173 -162 -16 -4 -34
-13 -42 -21 -8 -7 -41 -29 -74 -49 -88 -51 -153 -129 -179 -212 -12 -37 -21
-84 -22 -104 0 -20 -9 -61 -20 -90 -32 -87 -69 -347 -76 -534 -8 -204 9 -617
29 -699 8 -33 12 -66 9 -74 -3 -8 -1 -17 4 -21 5 -3 16 -26 24 -51 10 -30 20
-44 29 -42 8 2 12 1 8 -3 -12 -12 61 -140 106 -186 24 -24 63 -55 87 -69 24
-14 74 -56 111 -94 67 -68 88 -85 141 -108 16 -7 27 -20 27 -31 0 -22 -6 -18
-64 32 l-29 26 19 -32 c10 -18 22 -33 27 -33 4 0 6 -4 2 -9 -3 -5 6 -18 20
-29 14 -11 25 -27 25 -36 0 -19 -16 -21 -24 -3 -4 6 -4 -4 -1 -23 3 -19 12
-40 20 -46 29 -22 15 -25 -15 -4 -28 20 -30 20 -29 3 0 -10 13 -29 30 -41 33
-27 38 -26 230 3 l45 7 26 -61 c25 -57 26 -64 12 -96 -32 -77 -4 -133 105
-213 41 -30 74 -63 84 -85 23 -47 24 -193 1 -225 -8 -12 -14 -37 -12 -54 3
-31 6 -33 52 -41 27 -4 50 -6 52 -5 2 2 10 44 19 93 8 48 20 106 26 127 19 72
98 138 191 161 15 4 36 16 46 27 10 11 68 39 128 63 109 43 369 175 361 183
-2 2 -21 -3 -43 -12 -35 -15 -82 -24 -204 -38 -23 -3 -41 1 -52 11 -11 10 -18
12 -18 5 0 -7 -8 -12 -17 -11 -11 0 -13 3 -5 6 6 2 10 9 7 13 -9 14 58 29 67
16 5 -7 8 -7 8 2 0 7 5 10 12 6 7 -4 8 -3 4 4 -8 13 12 23 82 41 23 7 42 17
42 24 0 7 15 18 33 25 44 16 136 95 159 136 10 18 9 18 -18 -1 -31 -21 -64
-35 -64 -28 0 10 83 90 91 88 5 -2 11 8 15 22 3 14 10 23 14 20 5 -3 16 5 24
17 32 45 13 51 -33 12 -17 -14 -31 -22 -31 -18 0 4 -11 -3 -25 -16 -14 -13
-25 -18 -25 -12 0 7 -9 3 -20 -8 -11 -11 -20 -26 -20 -32 0 -9 -4 -8 -10 2 -8
13 -10 12 -10 -4 0 -19 -1 -19 -13 -2 -12 16 -14 15 -37 -9 -17 -19 -26 -22
-32 -13 -5 9 -8 5 -9 -12 0 -14 -3 -19 -6 -12 -2 6 -9 9 -14 6 -6 -3 -16 -1
-23 5 -10 9 -15 7 -19 -9 -6 -25 -27 -27 -27 -2 0 11 -8 17 -24 18 -19 1 -23
-2 -18 -19 3 -14 1 -18 -6 -13 -7 4 -12 1 -12 -9 0 -11 -5 -15 -15 -11 -8 3
-15 0 -15 -7 0 -8 -4 -6 -10 3 -8 12 -10 12 -10 1 0 -9 -7 -6 -20 9 l-20 23 0
-21 c0 -24 -10 -28 -27 -11 -8 8 -17 5 -32 -10 -11 -11 -23 -16 -26 -11 -9 15
-58 4 -65 -15 -6 -17 -7 -17 -13 -2 -4 10 -19 23 -34 29 -15 7 -33 17 -40 23
-7 5 -19 16 -27 23 -12 9 -13 18 -6 38 13 33 13 34 -6 34 -8 0 -12 4 -9 10 3
5 -3 15 -15 22 -11 7 -20 20 -20 29 0 12 -7 15 -25 11 -21 -4 -25 -10 -26 -41
l-1 -36 -10 38 c-10 38 -37 52 -39 20 0 -12 -2 -13 -6 -5 -4 10 -8 10 -19 1
-12 -10 -16 -8 -21 9 -4 16 -13 22 -34 22 -16 0 -29 5 -29 10 0 6 -10 10 -22
10 -26 1 -61 24 -51 33 3 4 1 7 -5 7 -7 0 -12 -6 -12 -12 0 -7 -5 -5 -11 5 -6
9 -16 15 -22 11 -7 -3 -1 4 12 15 32 28 21 37 -12 10 -18 -13 -25 -15 -21 -6
3 8 -2 17 -11 21 -19 7 -75 -20 -75 -36 0 -7 -6 -4 -13 7 -8 10 -19 15 -25 11
-7 -4 -12 -2 -12 4 0 8 -9 10 -24 6 -19 -5 -26 -1 -36 24 -10 24 -15 28 -27
19 -11 -10 -12 -9 -7 5 7 19 -7 21 -24 4 -9 -9 -12 -7 -12 9 0 36 -21 82 -34
77 -8 -3 -20 2 -29 10 -8 8 -17 12 -21 9 -10 -10 -7 6 8 42 8 19 11 35 5 35
-5 0 -9 -4 -9 -8 0 -5 -7 -9 -15 -9 -8 0 -15 7 -15 14 0 8 -4 11 -10 8 -10 -6
-14 6 -11 38 1 9 -3 17 -8 17 -6 0 -11 9 -11 21 0 13 -4 18 -12 13 -6 -4 -8
-3 -5 3 4 6 0 32 -7 59 -8 27 -17 63 -19 79 -3 17 -9 41 -15 55 -5 14 -12 48
-16 75 -4 28 -12 65 -18 83 -7 24 -7 37 1 45 13 13 15 30 2 23 -5 -4 -8 10 -6
31 1 21 -1 43 -7 50 -6 7 -5 14 2 18 5 3 10 12 10 18 0 9 -3 8 -8 -1 -6 -8
-12 6 -19 40 -13 61 -11 118 4 150 6 13 14 31 17 41 3 11 15 17 33 17 26 0 30
-5 51 -77 34 -110 97 -194 177 -236 74 -39 228 -34 332 9 8 4 10 -3 7 -20 -2
-13 0 -28 6 -31 5 -3 10 -14 10 -24 0 -29 42 -59 98 -71 53 -12 69 -33 33 -45
-11 -3 -22 -19 -26 -37 -10 -41 -42 -77 -67 -73 -13 3 -22 -2 -25 -15 -3 -11
-17 -22 -34 -25 -16 -4 -34 -15 -39 -26 -13 -24 -59 -69 -67 -66 -3 1 -15 -11
-27 -26 -17 -23 -18 -31 -8 -47 7 -11 12 -28 13 -37 0 -11 3 -13 6 -5 2 6 9
12 15 12 6 0 17 8 25 18 13 15 14 14 10 -15 -2 -20 1 -33 8 -33 6 0 19 -10 29
-22 l19 -22 18 23 c11 13 19 20 19 15 0 -4 6 -1 13 8 8 11 34 19 77 22 165 14
177 18 176 47 -1 16 11 24 57 40 32 11 63 19 70 17 7 -1 28 3 47 9 19 6 62 15
95 19 l60 8 -60 6 c-33 3 -73 2 -90 -2 -46 -12 -91 0 -103 27 -8 17 -23 26
-49 31 -21 4 -43 10 -48 15 -6 4 -17 4 -25 -1 -20 -13 -30 -12 -30 0 0 6 9 10
19 10 11 0 21 5 23 10 2 6 32 12 68 15 82 7 167 33 174 54 3 9 8 21 11 27 4 7
-8 11 -30 12 -19 1 -45 6 -56 13 -23 12 -39 0 -39 -29 0 -8 -6 -12 -12 -9 -7
2 -18 -3 -25 -12 -11 -14 -12 -14 -13 3 0 13 -5 16 -16 12 -13 -5 -15 -1 -12
19 4 17 1 25 -8 25 -9 0 -14 13 -14 38 0 28 6 44 25 60 14 12 25 26 25 30 0 4
-13 29 -30 55 -32 51 -51 57 -99 33 -44 -23 -53 -39 -41 -72 15 -39 -6 -59
-54 -50 -40 8 -56 29 -56 76 0 38 11 61 59 120 72 88 134 255 102 274 -7 5
-12 -2 -13 -16 0 -13 -4 0 -8 27 l-7 50 -1 -57 c-1 -31 -7 -60 -12 -63 -7 -5
-9 8 -6 39 4 25 2 48 -4 51 -13 8 -13 65 -1 65 5 0 11 -6 14 -12 2 -7 3 -6 2
2 -2 8 -6 24 -11 34 -5 14 -4 17 4 12 31 -19 7 17 -39 58 -28 25 -47 46 -42
46 5 0 15 -6 22 -12 10 -11 11 -8 7 12 -3 14 -8 52 -11 84 -5 40 -10 55 -16
45 -7 -11 -9 -11 -9 -1 0 7 -5 10 -10 7 -6 -3 -13 0 -16 9 -3 8 -12 12 -20 9
-8 -3 -22 4 -32 16 -16 19 -21 20 -72 11 -91 -18 -123 -20 -136 -9 -7 6 -15 6
-18 1 -3 -5 -24 -9 -47 -9 -25 0 -47 -6 -53 -15 -6 -7 -26 -15 -45 -16 -35 -3
-47 -14 -105 -96 -15 -23 -25 -32 -21 -21 8 20 9 41 5 151 -2 66 6 104 24 116
6 4 -1 8 -15 8 -23 0 -27 5 -32 43 -3 23 -2 44 4 45 5 2 9 12 9 22 0 11 9 24
20 30 23 13 27 40 5 40 -11 0 -15 11 -15 36 0 21 4 33 10 29 6 -3 10 4 10 18
0 14 7 30 15 37 8 7 15 19 15 26 0 8 9 14 20 14 11 0 20 6 20 14 0 13 54 41
73 37 4 0 7 4 7 10 0 5 4 8 9 5 5 -3 19 3 32 13 30 23 138 63 154 57 6 -2 34
1 61 7 27 6 108 11 179 12 72 1 173 5 225 9 269 21 515 -85 683 -294 37 -47
74 -98 82 -114 15 -30 55 -219 55 -262 0 -13 4 -24 10 -24 5 0 12 -16 16 -35
5 -31 10 -35 35 -35 17 0 32 -6 35 -15 5 -12 -9 -54 -31 -95 -2 -3 5 -23 16
-44 10 -22 19 -48 19 -58 0 -10 5 -18 10 -18 6 0 10 -15 11 -32 0 -27 2 -29 9
-13 6 17 9 13 14 -20 27 -156 51 -271 58 -273 4 -2 8 -18 9 -35 0 -27 2 -29 9
-12 11 25 11 17 11 -95 0 -63 2 -80 10 -65 8 17 9 17 3 -5 -3 -14 -10 -44 -15
-66 -8 -33 -7 -50 5 -79 23 -54 20 -77 -14 -120 -22 -27 -30 -49 -30 -76 0
-38 12 -50 26 -28 3 6 19 9 34 7 24 -4 26 -2 17 13 -8 12 -6 32 7 73 10 31 20
56 23 56 3 0 3 -7 -1 -15 -3 -8 -1 -15 4 -15 6 0 10 6 10 14 0 8 4 16 8 18 5
2 12 16 16 31 8 33 -10 28 -24 -7 -8 -20 -9 -19 -9 6 -1 14 -11 44 -22 66 -20
37 -21 44 -8 74 8 18 14 56 14 83 0 41 3 50 17 49 21 -2 31 30 49 156 7 47 19
93 27 102 9 11 12 27 7 49 -5 20 -10 27 -15 19 -5 -8 -9 -7 -13 5 -4 9 -3 13
3 10 6 -3 10 -1 10 6 0 8 5 6 13 -5 12 -16 13 -16 29 1 20 22 33 98 19 107
-17 11 -25 95 -11 121 7 14 10 37 7 54 -4 17 -2 33 2 36 12 7 2 41 -15 56 -8
6 -14 23 -14 38 0 42 -26 114 -69 197 -23 43 -41 82 -41 88 0 7 -14 23 -30 38
-17 14 -33 40 -36 58 -4 17 -14 36 -24 43 -9 7 -21 23 -25 37 -21 69 -140 239
-222 317 -26 26 -41 47 -37 54 4 7 3 9 -4 6 -5 -4 -44 26 -85 65 -66 65 -74
76 -70 103 4 26 -3 38 -50 84 -50 49 -67 61 -132 94 -172 87 -168 86 -274 96
-57 6 -104 10 -105 10 0 -1 -19 -5 -41 -10z m460 -139 c3 -5 1 -10 -4 -10 -6
0 -11 5 -11 10 0 6 2 10 4 10 3 0 8 -4 11 -10z m324 -404 c-3 -3 -11 5 -18 17
-13 21 -12 21 5 5 10 -10 16 -20 13 -22z m132 -153 c13 -16 12 -17 -3 -4 -10
7 -18 15 -18 17 0 8 8 3 21 -13z m34 -23 c3 -5 1 -10 -4 -10 -6 0 -11 5 -11
10 0 6 2 10 4 10 3 0 8 -4 11 -10z m-85 -84 c0 -12 -14 5 -31 39 -8 16 -6 15
10 -4 12 -13 21 -28 21 -35z m121 -3 c13 -16 12 -17 -3 -4 -17 13 -22 21 -14
21 2 0 10 -8 17 -17z m-81 -52 c0 -11 -4 -9 -14 4 -8 11 -12 24 -9 28 7 11 23
-12 23 -32z m-2103 -253 c-3 -8 -6 -5 -6 6 -1 11 2 17 5 13 3 -3 4 -12 1 -19z
m603 -118 c0 -5 -5 -10 -11 -10 -5 0 -7 5 -4 10 3 6 8 10 11 10 2 0 4 -4 4
-10z m154 -119 c5 -7 -83 -21 -135 -21 -27 0 -24 18 4 23 41 8 126 7 131 -2z
m166 -1 c0 -5 -5 -10 -11 -10 -5 0 -7 5 -4 10 3 6 8 10 11 10 2 0 4 -4 4 -10z
m-547 -45 c-3 -9 -8 -14 -10 -11 -3 3 -2 9 2 15 9 16 15 13 8 -4z m517 -18 c0
-31 -31 -57 -67 -57 -33 0 -35 -1 -18 -13 16 -12 10 -15 -53 -20 -39 -4 -82
-11 -96 -17 -30 -11 -36 3 -8 20 27 17 -26 1 -68 -21 -39 -20 -120 -92 -120
-106 0 -5 -7 -10 -15 -10 -8 0 -15 6 -15 14 0 7 7 13 15 13 18 0 19 12 3 28
-9 9 -9 12 0 12 6 0 9 6 6 13 -3 8 2 20 11 27 8 7 15 18 15 26 0 7 9 15 19 19
23 7 36 35 17 35 -22 0 -79 -44 -103 -79 -27 -40 -31 -101 -7 -101 8 0 12 -5
9 -10 -4 -6 -11 -8 -16 -5 -5 3 -6 -1 -3 -9 3 -9 1 -16 -5 -16 -6 0 -11 -7
-11 -15 0 -12 13 -15 60 -15 33 0 60 -4 60 -10 0 -5 -5 -10 -10 -10 -7 0 -7
-8 1 -22 11 -21 12 -21 23 13 9 27 17 34 36 34 14 0 31 4 39 9 8 5 43 10 79
12 62 3 63 2 46 -17 -17 -18 -16 -19 32 -15 27 2 56 6 64 9 67 27 100 34 117
23 24 -15 47 -14 67 3 10 8 16 9 16 3 0 -6 -6 -15 -13 -19 -18 -11 -28 -41
-17 -48 6 -4 10 2 10 12 0 14 2 15 9 4 5 -8 16 -11 24 -8 12 5 13 0 4 -29 -7
-23 -16 -34 -30 -34 -13 0 -17 -5 -13 -16 6 -17 -17 -58 -27 -48 -3 4 -9 -7
-13 -22 -9 -40 -40 -71 -99 -102 -40 -21 -68 -27 -142 -30 -84 -4 -98 -2 -146
21 -98 48 -163 144 -193 287 -10 44 -21 80 -25 80 -5 0 -5 -7 -2 -17 4 -10 2
-14 -5 -9 -6 3 -13 2 -17 -4 -4 -6 -18 1 -34 17 l-28 28 25 17 c14 9 31 27 38
40 l13 23 1 -27 c0 -39 24 -36 49 6 27 44 94 104 123 111 135 33 388 48 388
22z m1467 -69 c-3 -8 -6 -5 -6 6 -1 11 2 17 5 13 3 -3 4 -12 1 -19z m-1567
-78 c0 -5 -5 -10 -11 -10 -5 0 -7 5 -4 10 3 6 8 10 11 10 2 0 4 -4 4 -10z m47
-24 c-10 -26 -25 -18 -19 10 3 17 8 22 15 15 5 -5 7 -17 4 -25z m-154 -43 l20
-23 -30 0 c-17 0 -38 8 -48 20 -17 19 -17 21 0 40 18 20 19 20 28 3 5 -10 19
-28 30 -40z m1620 -182 c3 -25 8 -55 12 -66 3 -11 -1 -7 -10 9 -10 16 -18 38
-20 50 -1 11 -6 28 -9 37 -4 10 -2 16 7 16 10 0 16 -16 20 -46z m-56 -63 c-2
-13 -4 -3 -4 22 0 25 2 35 4 23 2 -13 2 -33 0 -45z m-1097 -158 c0 -18 -39
-50 -55 -44 -29 12 -15 40 18 35 4 0 7 4 7 9 0 6 7 10 15 10 8 0 15 -4 15 -10z
m48 -363 c4 -21 -30 -24 -47 -3 -9 11 -9 15 1 19 22 9 43 2 46 -16z m-844
-172 c3 -8 1 -15 -4 -15 -6 0 -10 7 -10 15 0 8 2 15 4 15 2 0 6 -7 10 -15z
m1249 -500 c-3 -9 -8 -14 -10 -11 -3 3 -2 9 2 15 9 16 15 13 8 -4z m-76 -71
c-3 -3 -12 -4 -19 -1 -8 3 -5 6 6 6 11 1 17 -2 13 -5z m76 -9 c-3 -9 -8 -14
-10 -11 -3 3 -2 9 2 15 9 16 15 13 8 -4z m67 -49 c0 -2 -7 -7 -16 -10 -8 -3
-12 -2 -9 4 6 10 25 14 25 6z m-730 -167 c4 -6 11 -11 16 -11 5 0 19 -4 30 -8
12 -5 30 -7 40 -6 11 2 28 -3 39 -10 11 -7 24 -12 29 -11 5 1 14 -7 20 -18 6
-11 15 -23 21 -27 12 -9 26 12 17 27 -3 5 2 4 11 -4 9 -7 14 -17 11 -22 -3 -5
-1 -9 5 -9 5 0 12 6 14 13 3 6 6 2 6 -10 1 -15 -6 -23 -21 -26 -13 -2 -4 -5
19 -6 23 0 45 -6 48 -11 4 -6 11 -8 16 -5 5 4 9 1 9 -5 0 -6 -8 -10 -17 -9
-10 1 -21 1 -25 0 -5 0 -10 -1 -13 -1 -14 1 -36 -31 -29 -42 5 -8 2 -9 -9 -5
-12 5 -17 1 -17 -13 0 -11 -6 -20 -14 -20 -8 0 -17 -13 -21 -30 -5 -23 -12
-30 -31 -30 -13 0 -32 8 -41 19 -10 10 -49 51 -88 91 -38 40 -70 80 -72 90 -1
11 -9 36 -16 57 -19 57 -13 73 25 62 18 -5 35 -14 38 -20z m385 21 c-3 -5 -14
-10 -23 -9 -14 0 -13 2 3 9 27 11 27 11 20 0z"/>
<path d="M1123 3085 c0 -8 4 -12 9 -9 5 3 6 10 3 15 -9 13 -12 11 -12 -6z"/>
<path d="M1210 3014 c0 -8 -5 -12 -10 -9 -12 7 -33 -42 -24 -57 9 -15 67 49
60 67 -7 20 -26 19 -26 -1z"/>
<path d="M1110 2950 c0 -42 3 -50 19 -50 29 0 36 32 12 52 -13 10 -19 23 -15
32 3 9 1 16 -5 16 -7 0 -11 -20 -11 -50z m17 -22 c-3 -8 -6 -5 -6 6 -1 11 2
17 5 13 3 -3 4 -12 1 -19z"/>
<path d="M1331 2968 c-17 -28 -16 -33 7 -34 14 -1 17 5 14 27 -2 16 -5 29 -6
29 -1 0 -8 -10 -15 -22z"/>
<path d="M1246 2924 c-22 -21 -20 -27 4 -14 11 6 20 15 20 20 0 14 -6 12 -24
-6z"/>
<path d="M1156 2851 c-26 -28 -16 -48 12 -24 14 11 19 23 14 31 -7 10 -13 8
-26 -7z"/>
<path d="M2166 2813 c-10 -10 -16 -12 -12 -5 4 6 3 12 -2 12 -6 0 -15 -13 -21
-30 -5 -16 -12 -30 -15 -30 -3 0 -3 6 0 13 3 8 -2 14 -11 14 -10 0 -15 -10
-15 -27 0 -14 -7 -35 -15 -46 -8 -10 -14 -28 -14 -39 1 -16 2 -15 9 5 6 22 8
23 15 8 10 -24 24 -13 19 15 -4 22 -4 22 5 1 8 -19 14 -21 50 -14 23 4 41 5
41 1 0 -3 -23 -17 -50 -30 -55 -25 -134 -106 -144 -146 -4 -14 -2 -33 3 -42 8
-14 12 -11 24 20 42 100 112 142 290 176 145 28 260 28 307 0 56 -33 81 -60
107 -114 16 -33 22 -40 17 -20 -4 17 -8 41 -9 55 -2 14 -8 24 -14 22 -7 -1
-10 1 -7 6 8 13 -54 68 -96 85 -20 9 -53 18 -73 21 -33 6 -197 -7 -260 -20
-16 -4 -26 -3 -22 2 11 12 94 34 145 38 87 8 124 18 114 28 -6 6 -8 17 -5 24
3 8 0 14 -6 14 -6 0 -11 -6 -11 -12 0 -8 -3 -9 -8 -3 -14 20 -57 32 -79 24
-12 -4 -25 -4 -27 0 -8 12 -148 12 -163 0 -9 -8 -13 -8 -13 0 0 17 -33 13 -54
-6z"/>
<path d="M2061 2783 c-1 -23 4 -45 9 -48 12 -8 12 42 0 70 -7 16 -9 11 -9 -22z"/>
<path d="M2685 2585 c4 -11 14 -40 22 -65 9 -25 20 -49 26 -55 7 -7 8 -4 3 8
-3 10 -6 32 -6 47 0 17 -11 40 -26 57 -20 22 -24 24 -19 8z"/>
<path d="M2203 2576 c-53 -19 -71 -42 -75 -97 -3 -48 -2 -49 14 -30 22 29 29
26 17 -5 -5 -15 -8 -28 -7 -29 36 -30 189 -61 173 -36 -6 10 11 24 32 27 19 3
62 38 63 50 0 7 -10 14 -22 17 -21 6 -21 7 -5 24 25 29 52 25 93 -13 21 -19
41 -34 45 -34 19 0 17 19 -4 38 -21 20 -117 66 -117 57 0 -3 -16 2 -36 10 -20
8 -51 15 -70 15 -18 0 -36 5 -39 10 -7 12 -20 11 -62 -4z m67 -104 c0 -10 5
-23 12 -30 9 -9 8 -12 -6 -12 -42 0 -75 41 -43 53 24 10 37 7 37 -11z"/>
<path d="M2019 2377 c-3 -38 0 -61 7 -65 7 -4 21 -27 33 -52 24 -51 77 -120
93 -120 5 0 -6 18 -24 39 -46 54 -80 125 -94 196 l-11 60 -4 -58z"/>
<path d="M2752 2370 c0 -14 2 -19 5 -12 2 6 2 18 0 25 -3 6 -5 1 -5 -13z"/>
<path d="M2741 2324 c0 -11 3 -14 6 -6 3 7 2 16 -1 19 -3 4 -6 -2 -5 -13z"/>
<path d="M2891 2294 c0 -11 3 -14 6 -6 3 7 2 16 -1 19 -3 4 -6 -2 -5 -13z"/>
<path d="M2697 2212 c-61 -102 -166 -155 -307 -156 -68 -1 -95 4 -133 21 -57
27 -53 12 5 -18 36 -18 55 -21 138 -17 84 3 105 8 163 36 66 33 123 87 154
145 24 47 10 39 -20 -11z"/>
<path d="M3166 2165 c3 -11 8 -44 11 -72 3 -29 10 -50 14 -47 15 9 9 57 -12
99 -11 22 -17 31 -13 20z"/>
<path d="M2027 2009 c-17 -10 -16 -13 13 -30 17 -11 48 -21 68 -22 31 -2 38 2
40 19 5 36 -77 58 -121 33z"/>
<path d="M1933 1793 c-21 -8 -15 -33 7 -33 13 0 20 7 20 20 0 20 -5 23 -27 13z"/>
<path d="M2400 1633 c0 -7 -6 -10 -14 -7 -15 6 -30 -22 -20 -38 4 -6 2 -13 -4
-17 -6 -4 -9 -17 -5 -29 4 -15 13 -22 31 -22 15 0 41 -15 68 -40 67 -62 98
-48 82 38 -9 52 -56 111 -70 90 -6 -10 -8 -10 -8 0 0 7 -4 10 -10 7 -5 -3 -10
2 -11 12 0 16 -1 16 -8 -2 -8 -19 -8 -19 -19 0 -6 11 -12 15 -12 8z"/>
<path d="M3000 1431 c0 -5 7 -11 15 -15 9 -3 15 0 15 9 0 8 -7 15 -15 15 -8 0
-15 -4 -15 -9z"/>
<path d="M2920 1375 c-11 -26 -20 -50 -20 -55 0 -12 -32 -71 -48 -88 -7 -7
-10 -17 -7 -22 3 -4 -2 -10 -10 -14 -8 -3 -15 -13 -15 -21 0 -9 4 -13 10 -10
5 3 7 0 4 -8 -3 -8 2 -62 11 -121 16 -109 13 -143 -14 -185 -15 -24 -14 -24
45 8 34 18 115 72 180 122 65 49 126 89 134 89 31 0 80 -41 119 -100 23 -34
41 -70 41 -80 0 -10 -15 -30 -32 -45 -18 -15 -80 -73 -138 -129 -58 -55 -126
-117 -152 -136 -25 -19 -61 -57 -78 -83 -17 -27 -49 -60 -70 -75 -22 -15 -39
-33 -40 -41 0 -8 -72 -86 -159 -173 -88 -87 -156 -158 -151 -158 16 0 177 49
260 79 81 30 88 34 130 93 44 60 166 178 265 256 45 35 131 114 208 189 16 15
37 40 46 55 17 27 17 29 -16 94 -18 37 -33 79 -33 94 0 15 -11 43 -24 62 -26
39 -33 123 -9 113 7 -2 13 -1 13 4 0 5 -8 12 -17 15 -10 4 -38 18 -63 31 -25
14 -50 25 -55 25 -12 0 -45 36 -45 49 0 5 -8 12 -17 15 -33 12 -65 34 -98 67
-19 19 -57 56 -84 82 l-51 48 -20 -46z"/>
<path d="M1580 1310 c0 -5 5 -10 10 -10 6 0 10 5 10 10 0 6 -4 10 -10 10 -5 0
-10 -4 -10 -10z"/>
<path d="M1421 1144 c0 -11 3 -14 6 -6 3 7 2 16 -1 19 -3 4 -6 -2 -5 -13z"/>
<path d="M2750 1105 c-13 -14 -21 -27 -18 -31 3 -3 16 9 28 25 26 37 22 40
-10 6z"/>
<path d="M2590 700 c-14 -11 -20 -20 -15 -20 6 0 21 9 35 20 14 11 21 20 15
20 -5 0 -21 -9 -35 -20z"/>
<path d="M1433 478 c-7 -8 -19 -43 -28 -79 -23 -96 -35 -138 -57 -202 -11 -32
-18 -60 -16 -61 6 -5 71 -26 79 -26 5 0 9 12 9 28 0 69 41 152 60 121 19 -29
21 2 5 48 -10 26 -23 79 -29 117 -9 56 -14 66 -23 54z"/>
</g>
</svg>
